<svg width="128" height="128" viewBox="0 0 128 128" xmlns="http://www.w3.org/2000/svg">
  <!-- 背景 -->
  <rect width="128" height="128" rx="20" fill="#667eea"/>
  
  <!-- メインアイコン（グラフ・モニター） -->
  <g transform="translate(16, 16)">
    <!-- モニター枠 -->
    <rect x="8" y="20" width="80" height="56" rx="4" fill="#ffffff" opacity="0.9"/>
    <rect x="12" y="24" width="72" height="44" rx="2" fill="#2c3e50"/>
    
    <!-- グラフバー -->
    <rect x="20" y="58" width="6" height="10" fill="#4CAF50"/>
    <rect x="30" y="52" width="6" height="16" fill="#2196F3"/>
    <rect x="40" y="46" width="6" height="22" fill="#FF9800"/>
    <rect x="50" y="40" width="6" height="28" fill="#F44336"/>
    <rect x="60" y="48" width="6" height="20" fill="#9C27B0"/>
    <rect x="70" y="54" width="6" height="14" fill="#00BCD4"/>
    
    <!-- モニター台 -->
    <rect x="40" y="76" width="16" height="4" rx="2" fill="#ffffff" opacity="0.8"/>
    <rect x="36" y="80" width="24" height="8" rx="4" fill="#ffffff" opacity="0.6"/>
    
    <!-- 監視アイコン（虫眼鏡） -->
    <circle cx="24" cy="12" r="8" fill="none" stroke="#ffffff" stroke-width="3" opacity="0.9"/>
    <line x1="30" y1="18" x2="36" y2="24" stroke="#ffffff" stroke-width="3" stroke-linecap="round" opacity="0.9"/>
    
    <!-- リソースアイコン -->
    <g transform="translate(60, 4)">
      <rect x="0" y="0" width="16" height="16" rx="2" fill="#ffffff" opacity="0.7"/>
      <rect x="2" y="2" width="4" height="4" fill="#4CAF50"/>
      <rect x="8" y="2" width="4" height="4" fill="#2196F3"/>
      <rect x="2" y="8" width="4" height="4" fill="#FF9800"/>
      <rect x="8" y="8" width="4" height="4" fill="#F44336"/>
    </g>
  </g>
  
  <!-- 装飾的な点線 -->
  <circle cx="96" cy="32" r="2" fill="#ffffff" opacity="0.6"/>
  <circle cx="104" cy="40" r="2" fill="#ffffff" opacity="0.4"/>
  <circle cx="112" cy="48" r="2" fill="#ffffff" opacity="0.6"/>
</svg>